<svg width="800" height="600" xmlns="http://www.w3.org/2000/svg">
  <defs>
    <linearGradient id="bg7" x1="0%" y1="0%" x2="100%" y2="100%">
      <stop offset="0%" style="stop-color:#0D1B2A"/>
      <stop offset="100%" style="stop-color:#1B2838"/>
    </linearGradient>
    <linearGradient id="card7" x1="0%" y1="0%" x2="100%" y2="100%">
      <stop offset="0%" style="stop-color:#1E3A5F"/>
      <stop offset="100%" style="stop-color:#152A45"/>
    </linearGradient>
  </defs>
  <rect width="800" height="600" fill="url(#bg7)"/>
  <rect x="50" y="50" width="700" height="500" rx="24" fill="url(#card7)" stroke="#14B8A6" stroke-width="1" stroke-opacity="0.2"/>
  <rect x="100" y="150" width="180" height="180" rx="20" fill="#0D1B2A"/>
  <!-- Feedback/Clock Icon -->
  <circle cx="190" cy="230" r="50" stroke="#3B82F6" stroke-width="5" fill="none"/>
  <path d="M190 195 L190 230 L220 230" stroke="#10B981" stroke-width="5" stroke-linecap="round" stroke-linejoin="round" fill="none"/>
  <path d="M165 290 L175 305 L185 290" stroke="#F59E0B" stroke-width="4" stroke-linecap="round" stroke-linejoin="round" fill="none"/>
  <path d="M195 290 L205 305 L215 290" stroke="#F59E0B" stroke-width="4" stroke-linecap="round" stroke-linejoin="round" fill="none"/>
  <circle cx="250" cy="185" r="18" fill="#10B981"/>
  <path d="M242 185 L247 190 L258 179" stroke="white" stroke-width="3" stroke-linecap="round" stroke-linejoin="round" fill="none"/>
  <rect x="130" y="360" width="120" height="45" rx="22" fill="#14B8A6"/>
  <text x="190" y="390" text-anchor="middle" fill="white" font-family="Arial, sans-serif" font-size="16" font-weight="bold">PASO 07</text>
  <text x="330" y="180" fill="#E0E8F0" font-family="Georgia, serif" font-size="36">Seguimiento y Feedback</text>
  <rect x="330" y="200" width="80" height="5" rx="2" fill="#14B8A6"/>
  <text x="330" y="260" fill="#94A3B8" font-family="Arial, sans-serif" font-size="16">
    <tspan x="330" dy="0">Proceso continuo de retroalimentaci贸n mediante</tspan>
    <tspan x="330" dy="26">formulario an贸nimo para evaluar y mejorar</tspan>
    <tspan x="330" dy="26">la experiencia de inducci贸n.</tspan>
  </text>
  <rect x="330" y="380" width="85" height="36" rx="18" fill="#1E3A5F" stroke="#14B8A6" stroke-width="1" stroke-opacity="0.3"/>
  <text x="372" y="404" text-anchor="middle" fill="#E0E8F0" font-family="Arial, sans-serif" font-size="13"> Form</text>
  <rect x="430" y="380" width="100" height="36" rx="18" fill="#1E3A5F" stroke="#14B8A6" stroke-width="1" stroke-opacity="0.3"/>
  <text x="480" y="404" text-anchor="middle" fill="#E0E8F0" font-family="Arial, sans-serif" font-size="13"> An贸nimo</text>
  <rect x="545" y="380" width="90" height="36" rx="18" fill="#1E3A5F" stroke="#14B8A6" stroke-width="1" stroke-opacity="0.3"/>
  <text x="590" y="404" text-anchor="middle" fill="#E0E8F0" font-family="Arial, sans-serif" font-size="13"> Mejora</text>
</svg>
