<svg width="800" height="600" xmlns="http://www.w3.org/2000/svg">
  <defs>
    <linearGradient id="bg1" x1="0%" y1="0%" x2="100%" y2="100%">
      <stop offset="0%" style="stop-color:#0D1B2A"/>
      <stop offset="100%" style="stop-color:#1B2838"/>
    </linearGradient>
    <linearGradient id="card1" x1="0%" y1="0%" x2="100%" y2="100%">
      <stop offset="0%" style="stop-color:#1E3A5F"/>
      <stop offset="100%" style="stop-color:#152A45"/>
    </linearGradient>
  </defs>
  <!-- Background -->
  <rect width="800" height="600" fill="url(#bg1)"/>
  <!-- Card -->
  <rect x="50" y="50" width="700" height="500" rx="24" fill="url(#card1)" stroke="#3B82F6" stroke-width="1" stroke-opacity="0.2"/>
  <!-- Icon Container -->
  <rect x="100" y="150" width="180" height="180" rx="20" fill="#0D1B2A"/>
  <!-- Checklist Icon -->
  <rect x="140" y="175" width="100" height="130" rx="10" stroke="#3B82F6" stroke-width="5" fill="none"/>
  <path d="M160 225 L175 240 L205 210" stroke="#10B981" stroke-width="6" stroke-linecap="round" stroke-linejoin="round" fill="none"/>
  <line x1="160" y1="260" x2="220" y2="260" stroke="#94A3B8" stroke-width="4" stroke-linecap="round"/>
  <line x1="160" y1="280" x2="200" y2="280" stroke="#94A3B8" stroke-width="4" stroke-linecap="round"/>
  <!-- Step Badge -->
  <rect x="130" y="360" width="120" height="45" rx="22" fill="#3B82F6"/>
  <text x="190" y="390" text-anchor="middle" fill="white" font-family="Arial, sans-serif" font-size="16" font-weight="bold">PASO 01</text>
  <!-- Content -->
  <text x="330" y="180" fill="#E0E8F0" font-family="Georgia, serif" font-size="36">Check List de Inducción</text>
  <rect x="330" y="200" width="80" height="5" rx="2" fill="#10B981"/>
  <text x="330" y="260" fill="#94A3B8" font-family="Arial, sans-serif" font-size="16">
    <tspan x="330" dy="0">Lista estructurada de tareas y documentos</tspan>
    <tspan x="330" dy="26">esenciales que el nuevo colaborador debe</tspan>
    <tspan x="330" dy="26">completar durante su proceso de incorporación.</tspan>
  </text>
  <!-- Tags -->
  <rect x="330" y="380" width="110" height="36" rx="18" fill="#1E3A5F" stroke="#3B82F6" stroke-width="1" stroke-opacity="0.3"/>
  <text x="385" y="404" text-anchor="middle" fill="#E0E8F0" font-family="Arial, sans-serif" font-size="13">📋 Documentos</text>
  <rect x="455" y="380" width="90" height="36" rx="18" fill="#1E3A5F" stroke="#3B82F6" stroke-width="1" stroke-opacity="0.3"/>
  <text x="500" y="404" text-anchor="middle" fill="#E0E8F0" font-family="Arial, sans-serif" font-size="13">✅ Tareas</text>
  <rect x="560" y="380" width="90" height="36" rx="18" fill="#1E3A5F" stroke="#3B82F6" stroke-width="1" stroke-opacity="0.3"/>
  <text x="605" y="404" text-anchor="middle" fill="#E0E8F0" font-family="Arial, sans-serif" font-size="13">📅 Plazos</text>
</svg>
