<svg width="800" height="600" xmlns="http://www.w3.org/2000/svg">
  <defs>
    <linearGradient id="bg5" x1="0%" y1="0%" x2="100%" y2="100%">
      <stop offset="0%" style="stop-color:#0D1B2A"/>
      <stop offset="100%" style="stop-color:#1B2838"/>
    </linearGradient>
    <linearGradient id="card5" x1="0%" y1="0%" x2="100%" y2="100%">
      <stop offset="0%" style="stop-color:#1E3A5F"/>
      <stop offset="100%" style="stop-color:#152A45"/>
    </linearGradient>
  </defs>
  <rect width="800" height="600" fill="url(#bg5)"/>
  <rect x="50" y="50" width="700" height="500" rx="24" fill="url(#card5)" stroke="#8B5CF6" stroke-width="1" stroke-opacity="0.2"/>
  <rect x="100" y="150" width="180" height="180" rx="20" fill="#0D1B2A"/>
  <!-- Chat Icon -->
  <path d="M130 190 L130 250 Q130 265 145 265 L160 265 L175 285 L182 265 L250 265 Q265 265 265 250 L265 190 Q265 175 250 175 L145 175 Q130 175 130 190Z" stroke="#3B82F6" stroke-width="5" fill="none"/>
  <circle cx="170" cy="220" r="10" fill="#10B981"/>
  <circle cx="197" cy="220" r="10" fill="#F59E0B"/>
  <circle cx="224" cy="220" r="10" fill="#EF4444"/>
  <rect x="130" y="360" width="120" height="45" rx="22" fill="#8B5CF6"/>
  <text x="190" y="390" text-anchor="middle" fill="white" font-family="Arial, sans-serif" font-size="16" font-weight="bold">PASO 05</text>
  <text x="330" y="180" fill="#E0E8F0" font-family="Georgia, serif" font-size="36">Chat Centralizado</text>
  <rect x="330" y="200" width="80" height="5" rx="2" fill="#8B5CF6"/>
  <text x="330" y="260" fill="#94A3B8" font-family="Arial, sans-serif" font-size="16">
    <tspan x="330" dy="0">Canal único de comunicación donde el nuevo</tspan>
    <tspan x="330" dy="26">colaborador puede contactar al personal de</tspan>
    <tspan x="330" dy="26">apoyo y resolver dudas de forma ágil.</tspan>
  </text>
  <rect x="330" y="380" width="85" height="36" rx="18" fill="#1E3A5F" stroke="#8B5CF6" stroke-width="1" stroke-opacity="0.3"/>
  <text x="372" y="404" text-anchor="middle" fill="#E0E8F0" font-family="Arial, sans-serif" font-size="13">💬 Chat</text>
  <rect x="430" y="380" width="95" height="36" rx="18" fill="#1E3A5F" stroke="#8B5CF6" stroke-width="1" stroke-opacity="0.3"/>
  <text x="477" y="404" text-anchor="middle" fill="#E0E8F0" font-family="Arial, sans-serif" font-size="13">👥 Soporte</text>
  <rect x="540" y="380" width="90" height="36" rx="18" fill="#1E3A5F" stroke="#8B5CF6" stroke-width="1" stroke-opacity="0.3"/>
  <text x="585" y="404" text-anchor="middle" fill="#E0E8F0" font-family="Arial, sans-serif" font-size="13">⚡ Rápido</text>
</svg>
